<svg xmlns="http://www.w3.org/2000/svg" viewBox="0 0 100 100">
  <path d="M21.4 97.2a34.9 34.9 0 01-11.1-7.5 34.9 34.9 0 01-7.5-11A34.8 34.8 0 010 65a34.8 34.8 0 012.8-13.6 34.9 34.9 0 017.5-11.1 35 35 0 0111-7.5A34.8 34.8 0 0135 30a34.8 34.8 0 0113.6 2.8 35 35 0 0111.1 7.5 35 35 0 017.5 11A34.8 34.8 0 0170 65a34.8 34.8 0 01-2.7 13.6 34.9 34.9 0 01-7.5 11.2 35 35 0 01-11.2 7.5A34.8 34.8 0 0135 100a34.8 34.8 0 01-13.6-2.8zm2.7-58a27.9 27.9 0 00-8.9 6 28 28 0 00-6 8.9A27.8 27.8 0 007 65a27.8 27.8 0 002.2 10.9 27.9 27.9 0 006 8.9 28 28 0 008.9 6A27.8 27.8 0 0035 93a27.8 27.8 0 0010.9-2.2 28 28 0 008.9-6 28 28 0 006-8.9A27.8 27.8 0 0063 65a27.8 27.8 0 00-2.2-10.9 28 28 0 00-6-8.9 27.9 27.9 0 00-8.9-6A27.8 27.8 0 0035 37a27.8 27.8 0 00-10.9 2.2zM32 68V45h6v17h7v6zm48-1.4V65a45.5 45.5 0 00-.4-6 28.1 28.1 0 005.2-4.2 28 28 0 006-8.9A27.8 27.8 0 0093 35a27.8 27.8 0 00-2.2-10.9 27.9 27.9 0 00-6-8.9 28 28 0 00-8.9-6A27.8 27.8 0 0065 7a27.8 27.8 0 00-10.9 2.2 27.9 27.9 0 00-8.9 6 28 28 0 00-4.1 5.2A45.7 45.7 0 0035 20h-1.6a34.9 34.9 0 016.9-9.7 34.9 34.9 0 0111-7.5A34.8 34.8 0 0165 0a34.8 34.8 0 0113.6 2.8 34.9 34.9 0 0111.1 7.5 35 35 0 017.5 11A34.8 34.8 0 01100 35a34.8 34.8 0 01-2.7 13.6 34.9 34.9 0 01-7.5 11.1 35 35 0 01-9.8 7zM75 38h-4a45.2 45.2 0 00-9-9V15h6v17h7v6z"/>
</svg>