<svg xmlns="http://www.w3.org/2000/svg" viewBox="0 0 128 128">
  <path id="outer" d="m64 128-14-14-18 5-5-18-18-5 5-18L0 64l14-14-5-18 18-5 5-18 18 5L64 0l14 14 18-5 5 18 18 5-5 18 14 14-14 14 5 18-18 5-5 18-18-5-14 14Zm0-110a46 46 0 0 0-18 4 46 46 0 0 0-15 9 46 46 0 0 0-9 15 46 46 0 0 0-4 18 46 46 0 0 0 4 18 46 46 0 0 0 9 15 46 46 0 0 0 15 9 46 46 0 0 0 18 4 46 46 0 0 0 18-4 46 46 0 0 0 15-9 46 46 0 0 0 9-15 46 46 0 0 0 4-18 46 46 0 0 0-4-18 46 46 0 0 0-9-15 46 46 0 0 0-15-9 46 46 0 0 0-18-4Z"/>
  <path id="inner" d="M64 110a46 46 0 0 1-18-4 46 46 0 0 1-15-9 46 46 0 0 1-9-15 46 46 0 0 1-4-18 46 46 0 0 1 4-18 46 46 0 0 1 9-15 46 46 0 0 1 15-9 46 46 0 0 1 18-4 46 46 0 0 1 18 4 46 46 0 0 1 15 9 46 46 0 0 1 9 15 46 46 0 0 1 4 18 46 46 0 0 1-4 18 46 46 0 0 1-9 15 46 46 0 0 1-15 9 46 46 0 0 1-18 4Zm0-80v68a34 34 0 0 0 13-3 34 34 0 0 0 11-7 34 34 0 0 0 7-11 34 34 0 0 0 3-13 34 34 0 0 0-3-13 34 34 0 0 0-7-11 34 34 0 0 0-11-7 34 34 0 0 0-13-3Z"/>
  <path d="M64 98V30a34 34 0 0 1 13 3 34 34 0 0 1 11 7 34 34 0 0 1 7 11 34 34 0 0 1 3 13 34 34 0 0 1-3 13 34 34 0 0 1-7 11 34 34 0 0 1-11 7 34 34 0 0 1-13 3Z"/>
</svg>