<svg xmlns="http://www.w3.org/2000/svg" viewBox="0 0 100 100"><path d="M58.8 100H42a2 2 0 01-2-1.6l-2.7-13.8a36.9 36.9 0 01-10.2-5.8l-13.5 4.5a2 2 0 01-.6.1 2 2 0 01-1.7-1L2.9 68a2 2 0 01.4-2.5L14 56.1a37.5 37.5 0 01-.5-6.1 37.4 37.4 0 01.4-5.8L3.3 34.9a2 2 0 01-.4-2.5L11.3 18a2 2 0 011.7-1 2 2 0 01.6.1l13.2 4.5a36.9 36.9 0 0110.5-6.1l2.8-13.8A2 2 0 0142 0h16.6a2 2 0 012 1.6l2.8 13.8a36.9 36.9 0 0110.5 6L87 17a2 2 0 01.7 0 2 2 0 011.7 1L98 32.3a2 2 0 01-.4 2.5l-10.6 9.3a37.5 37.5 0 01.5 5.8 37.4 37.4 0 01-.5 6.1l10.6 9.3a2 2 0 01.4 2.5l-8.4 14.5a2 2 0 01-1.7 1 2 2 0 01-.7-.1l-13.4-4.6a36.9 36.9 0 01-10.2 6l-2.8 13.7a2 2 0 01-2 1.6zm-8.4-69a18.9 18.9 0 00-7.4 1.5 19 19 0 00-6 4 19 19 0 00-4.1 6.1 18.9 18.9 0 00-1.5 7.4 18.9 18.9 0 001.5 7.4 19 19 0 004 6 19 19 0 006 4.1 18.9 18.9 0 007.5 1.5 18.9 18.9 0 007.4-1.5 19 19 0 006-4 19 19 0 004.1-6.1 18.9 18.9 0 001.5-7.4 18.9 18.9 0 00-1.5-7.4 19 19 0 00-4-6 19 19 0 00-6.1-4.1 18.9 18.9 0 00-7.4-1.5z"/></svg>