<?xml version="1.0" standalone="no"?>
<!DOCTYPE svg PUBLIC "-//W3C//DTD SVG 20010904//EN"
 "http://www.w3.org/TR/2001/REC-SVG-20010904/DTD/svg10.dtd">
<svg version="1.0" xmlns="http://www.w3.org/2000/svg"
 width="700.000000pt" height="700.000000pt" viewBox="0 0 700.000000 700.000000"
 preserveAspectRatio="xMidYMid meet">
<metadata>
Created by potrace 1.11, written by Peter Selinger 2001-2013
</metadata>
<g transform="translate(0.000000,700.000000) scale(0.100000,-0.100000)"
fill="#000000" stroke="none">
<path d="M3225 6994 c-246 -25 -498 -70 -680 -123 -1007 -289 -1826 -1002
-2249 -1956 -102 -228 -176 -461 -226 -705 -56 -278 -64 -367 -64 -710 0 -343
8 -432 64 -710 224 -1101 978 -2034 2015 -2494 301 -134 618 -223 975 -273
179 -25 701 -25 880 0 734 103 1343 382 1890 863 556 490 951 1173 1100 1904
56 278 64 367 64 710 0 343 -8 432 -64 710 -224 1101 -978 2034 -2015 2494
-300 134 -622 224 -970 272 -114 15 -617 28 -720 18z m487 -1966 l3 -1313 712
-3 712 -2 10 -38 c39 -147 93 -373 90 -376 -2 -2 -445 -6 -983 -8 l-979 -6 6
331 c4 182 7 870 7 1529 l0 1198 210 0 210 0 2 -1312z"/>
</g>
</svg>
