<svg xmlns="http://www.w3.org/2000/svg" viewBox="0 0 100 100">
  <path d="M50 100a129.7 129.7 0 01-17.5-19.4 103.2 103.2 0 01-12-20.7A64 64 0 0115 35a34.8 34.8 0 012.8-13.6 34.9 34.9 0 017.5-11.1 34.9 34.9 0 0111-7.5A34.8 34.8 0 0150 0a34.8 34.8 0 0113.6 2.7 34.9 34.9 0 0111.1 7.5 34.9 34.9 0 017.5 11.2A34.8 34.8 0 0185 35a63.6 63.6 0 01-5.4 25 102.8 102.8 0 01-12 20.6A129.4 129.4 0 0150 100zm0-80a14.9 14.9 0 00-10.6 4.4A14.9 14.9 0 0035 35a14.9 14.9 0 004.4 10.6A14.9 14.9 0 0050 50a14.9 14.9 0 0010.6-4.4A14.9 14.9 0 0065 35a14.9 14.9 0 00-4.4-10.6A14.9 14.9 0 0050 20z"/>
</svg>