<svg xmlns="http://www.w3.org/2000/svg" viewBox="0 0 100 100">
  <path d="M50 100.2L39.4 89.6l-14.5 3.9L21 79 6.5 75l3.9-14.5L-.2 50l10.6-10.6-3.9-14.5L21 21 25 6.5l14.5 3.9L50-.2l10.6 10.6 14.5-3.9L79 21 93.5 25l-3.9 14.5L100.2 50 89.6 60.6l3.9 14.5L79 79 75 93.5l-14.5-3.9L50 100.2zM50 15a34.8 34.8 0 00-13.6 2.8 34.9 34.9 0 00-11.2 7.5 34.9 34.9 0 00-7.5 11A34.8 34.8 0 0015 50a34.8 34.8 0 002.7 13.6 34.9 34.9 0 007.5 11.2 34.9 34.9 0 0011.2 7.5A34.8 34.8 0 0050 85a34.8 34.8 0 0013.6-2.7 34.9 34.9 0 0011.1-7.5 34.9 34.9 0 007.5-11.2A34.8 34.8 0 0085 50a34.8 34.8 0 00-2.8-13.6 34.9 34.9 0 00-7.5-11.2 34.9 34.9 0 00-11-7.5A34.8 34.8 0 0050 15z"/>
  <path d="M50 85a34.8 34.8 0 01-13.6-2.8 34.9 34.9 0 01-11.1-7.5 34.9 34.9 0 01-7.5-11A34.8 34.8 0 0115 50a34.8 34.8 0 012.8-13.6 34.9 34.9 0 017.5-11.1 34.9 34.9 0 0111-7.5A34.8 34.8 0 0150 15a34.8 34.8 0 0113.6 2.7 34.9 34.9 0 0111.1 7.5 34.9 34.9 0 017.5 11.2A34.8 34.8 0 0185 50a34.8 34.8 0 01-2.8 13.6 34.9 34.9 0 01-7.5 11.1 34.9 34.9 0 01-11 7.5A34.8 34.8 0 0150 85zm0-62.5v55a27.3 27.3 0 0010.7-2.2 27.4 27.4 0 008.7-5.9 27.4 27.4 0 006-8.7A27.3 27.3 0 0077.4 50a27.3 27.3 0 00-2.2-10.7 27.4 27.4 0 00-5.9-8.7 27.4 27.4 0 00-8.7-6A27.3 27.3 0 0050 22.6z" id="inner"/>
  <path d="M50 77.5v-55a27.3 27.3 0 0110.7 2.2 27.4 27.4 0 018.7 5.9 27.4 27.4 0 016 8.7A27.3 27.3 0 0177.4 50a27.3 27.3 0 01-2.2 10.7 27.4 27.4 0 01-5.9 8.7 27.4 27.4 0 01-8.7 6A27.3 27.3 0 0150 77.4z"/>
</svg>