<svg xmlns="http://www.w3.org/2000/svg" viewBox="0 0 100 100">
  <path d="M50 100h-.6a49.7 49.7 0 01-17.3-3.3H32l-2.7-1.2h-.1A49.8 49.8 0 0115 85.8v-.2h-.1l-.1-.1-.2-.1A49.8 49.8 0 014 69.4 49.7 49.7 0 010 50a49.7 49.7 0 014-19.5 49.8 49.8 0 0110.6-15.9A49.8 49.8 0 0130.6 4 49.7 49.7 0 0150 0a49.7 49.7 0 0119.5 4 49.8 49.8 0 0115.9 10.6 49.8 49.8 0 0110.7 16A49.7 49.7 0 01100 50a49.7 49.7 0 01-4 19.5 49.8 49.8 0 01-10.6 15.9 49.8 49.8 0 01-15 10.2l-2.2 1H68a49.7 49.7 0 01-17.5 3.4H50zm33-27.5a39.9 39.9 0 003.9-7A39.7 39.7 0 0090 50a39.7 39.7 0 00-3.1-15.6 39.9 39.9 0 00-8.6-12.7 39.9 39.9 0 00-12.7-8.6A39.7 39.7 0 0050 10a39.7 39.7 0 00-15.6 3.1 39.9 39.9 0 00-12.7 8.6 39.9 39.9 0 00-8.6 12.7A39.8 39.8 0 0010 50a39.8 39.8 0 003.1 15.6 39.9 39.9 0 003.8 6.9A49.8 49.8 0 0150 60a49.8 49.8 0 0133 12.5zM35 40a15 15 0 0115-15 15 15 0 0115 15 15 15 0 01-15 15 15 15 0 01-15-15z"/>
</svg>